HIERARCHY
ROOT joint_Root
{
	OFFSET 0.0 0.0 0.0
	CHANNELS 6 Xposition Yposition Zposition Zrotation Xrotation Yrotation 
	JOINT Hips
	{
		OFFSET -17.1583 93.1646 452.98
		CHANNELS 6 Xposition Yposition Zposition Zrotation Xrotation Yrotation 
		JOINT Spine
		{
			OFFSET 15.7357 0.0 0.0
			CHANNELS 6 Xposition Yposition Zposition Zrotation Xrotation Yrotation 
			JOINT Chest
			{
				OFFSET 8.98455 -0.406207 0.0
				CHANNELS 6 Xposition Yposition Zposition Zrotation Xrotation Yrotation 
				JOINT Neck
				{
					OFFSET 16.3773 0.0 0.0
					CHANNELS 6 Xposition Yposition Zposition Zrotation Xrotation Yrotation 
					JOINT Head
					{
						OFFSET 6.45672 0.0 0.0
						CHANNELS 6 Xposition Yposition Zposition Zrotation Xrotation Yrotation 
						End Site
						{
							OFFSET 0.0 0.0 0.0
						}
					}
				}
				JOINT Shoulder_L
				{
					OFFSET 12.9942 -0.242716 4.98039
					CHANNELS 6 Xposition Yposition Zposition Zrotation Xrotation Yrotation 
					JOINT UpperArm_L
					{
						OFFSET 5.34809 0.0 0.0
						CHANNELS 6 Xposition Yposition Zposition Zrotation Xrotation Yrotation 
						JOINT LowerArm_L
						{
							OFFSET 24.3286 1.87007e-05 0.0
							CHANNELS 6 Xposition Yposition Zposition Zrotation Xrotation Yrotation 
							JOINT Hand_L
							{
								OFFSET 22.2916 0.0 0.0
								CHANNELS 6 Xposition Yposition Zposition Zrotation Xrotation Yrotation 
								End Site
								{
									OFFSET 0.0 0.0 0.0
								}
							}
						}
					}
				}
				JOINT Shoulder_R
				{
					OFFSET 12.9945 -0.242716 -4.98039
					CHANNELS 6 Xposition Yposition Zposition Zrotation Xrotation Yrotation 
					JOINT UpperArm_R
					{
						OFFSET -5.34813 0.0 0.0
						CHANNELS 6 Xposition Yposition Zposition Zrotation Xrotation Yrotation 
						JOINT LowerArm_R
						{
							OFFSET -24.3289 0.000322201 0.0
							CHANNELS 6 Xposition Yposition Zposition Zrotation Xrotation Yrotation 
							JOINT Hand_R
							{
								OFFSET -22.2915 -0.000108084 0.0
								CHANNELS 6 Xposition Yposition Zposition Zrotation Xrotation Yrotation 
								End Site
								{
									OFFSET 0.0 0.0 0.0
								}
							}
						}
					}
				}
			}
		}
		JOINT UpperLeg_L
		{
			OFFSET -2.19248 -6.46944 0.0
			CHANNELS 6 Xposition Yposition Zposition Zrotation Xrotation Yrotation 
			JOINT LowerLeg_L
			{
				OFFSET 39.0811 0.0 -1.23785e-05
				CHANNELS 6 Xposition Yposition Zposition Zrotation Xrotation Yrotation 
				JOINT Foot_L
				{
					OFFSET 40.9854 0.0 -1.26872e-05
					CHANNELS 6 Xposition Yposition Zposition Zrotation Xrotation Yrotation 
					JOINT Toes_L
					{
						OFFSET 11.7543 0.0 0.0
						CHANNELS 6 Xposition Yposition Zposition Zrotation Xrotation Yrotation 
						End Site
						{
							OFFSET 0.0 0.0 0.0
						}
					}
				}
			}
		}
		JOINT UpperLeg_R
		{
			OFFSET -2.19251 6.46944 0.0
			CHANNELS 6 Xposition Yposition Zposition Zrotation Xrotation Yrotation 
			JOINT LowerLeg_R
			{
				OFFSET -39.0811 -0.00228153 -0.0401928
				CHANNELS 6 Xposition Yposition Zposition Zrotation Xrotation Yrotation 
				JOINT Foot_R
				{
					OFFSET -40.9854 0.0 0.0
					CHANNELS 6 Xposition Yposition Zposition Zrotation Xrotation Yrotation 
					JOINT Toes_R
					{
						OFFSET -11.7543 0.0 0.0
						CHANNELS 6 Xposition Yposition Zposition Zrotation Xrotation Yrotation 
						End Site
						{
							OFFSET 0.0 0.0 0.0
						}
					}
				}
			}
		}
	}
}
MOTION
Frames:	7
Frame Time:	0.0333333
0.000000 0.000000 0.000000 0.000000 0.000000 -0.000000 193.708000 93.307500 -126.473000 88.951700 -0.015685 0.553517 15.735700 0.000005 -0.000001 129.013000 85.993400 -128.641000 8.984550 -0.406207 -0.000000 -1.557390 5.012850 0.812206 16.377300 -0.000001 -0.000001 -0.693129 0.602488 -1.280830 6.456720 -0.000001 -0.000000 9.771530 -1.428640 1.323900 12.994200 -0.242716 4.980390 -92.509200 6.589520 -69.099700 5.348090 -0.000007 -0.000001 -49.927500 -20.211800 12.195400 24.328600 0.000019 0.000005 2.795120 16.757000 -9.612070 22.291600 -0.000001 0.000005 -1.735050 5.012670 7.026820 12.994500 -0.242716 -4.980390 89.052700 3.462780 -74.691300 -5.348130 -0.000001 -0.000004 -66.269400 17.586200 -13.497500 -24.328900 0.000322 -0.000009 0.113664 0.190349 -31.468400 -22.291500 -0.000108 -0.000004 4.826140 5.340970 -1.107970 -2.192480 -6.469440 -0.000000 -177.208000 -0.145294 -22.880600 39.081100 -0.000007 -0.000012 0.117420 -0.090779 52.290800 40.985400 -0.000006 -0.000013 -7.681490 7.793180 -54.961000 11.754300 -0.000000 0.000003 0.001924 0.043904 -14.795900 -2.192510 6.469440 -0.000001 -178.317000 1.977990 -178.715000 -39.081100 -0.002282 -0.040193 -0.006042 0.020580 24.444000 -40.985400 0.000008 0.000006 -5.278090 -0.125629 -70.660100 -11.754300 -0.000006 -0.000006 0.002022 0.120147 -11.701100
0.000000 0.000000 0.000000 0.000000 0.000000 -0.000000 194.086000 94.142500 -123.788000 89.446900 -1.011980 -0.546504 15.735700 0.000005 -0.000001 134.024000 86.054000 -133.873000 8.984550 -0.406207 -0.000000 -2.101990 5.470110 0.403558 16.377300 -0.000001 -0.000001 -1.079920 0.994385 -1.633320 6.456720 -0.000001 -0.000000 9.926770 -1.336500 1.199190 12.994200 -0.242716 4.980390 -92.432900 6.419390 -69.193000 5.348090 -0.000007 -0.000001 -46.809900 -22.957700 13.866800 24.328600 0.000019 0.000005 2.326140 14.026500 -9.513270 22.291600 -0.000001 0.000005 4.941370 4.919990 8.922490 12.994500 -0.242716 -4.980390 89.199200 3.054460 -75.303000 -5.348130 -0.000001 -0.000004 -65.162700 18.038800 -17.012000 -24.328900 0.000322 -0.000009 -0.690028 -0.907862 -37.142000 -22.291500 -0.000108 -0.000004 4.714520 5.356280 -1.567570 -2.192480 -6.469440 -0.000000 -177.938000 -0.151258 -23.600800 39.081100 -0.000007 -0.000012 0.069394 -0.084675 39.335100 40.985400 -0.000006 -0.000013 -6.857290 7.657280 -56.411100 11.754300 -0.000000 0.000003 0.001966 0.045440 -14.733500 -2.192510 6.469440 -0.000001 -179.651000 4.332110 -176.443000 -39.081100 -0.002282 -0.040193 0.000865 0.006627 20.336900 -40.985400 0.000008 0.000006 -3.573450 1.894370 -66.603500 -11.754300 -0.000006 -0.000006 0.002431 0.071116 -13.688900
0.000000 0.000000 0.000000 0.000000 0.000000 -0.000000 194.350000 94.354200 -120.937000 89.279400 -1.518410 -1.184050 15.735700 0.000005 -0.000001 135.904000 86.061400 -135.706000 8.984550 -0.406207 -0.000000 -2.298480 5.638170 0.508728 16.377300 -0.000001 -0.000001 -1.598530 1.298320 -2.040600 6.456720 -0.000001 -0.000000 9.706250 -1.216020 0.945839 12.994200 -0.242716 4.980390 -92.267500 6.130520 -69.657400 5.348090 -0.000007 -0.000001 -45.153800 -24.780100 14.452300 24.328600 0.000019 0.000005 1.589870 11.010400 -8.264080 22.291600 -0.000001 0.000005 14.970700 4.781170 11.585000 12.994500 -0.242716 -4.980390 89.330100 2.635090 -75.732300 -5.348130 -0.000001 -0.000004 -64.204700 17.856600 -20.132100 -24.328900 0.000322 -0.000009 -1.351550 -1.468950 -42.590100 -22.291500 -0.000108 -0.000004 4.852390 5.370690 -2.007860 -2.192480 -6.469440 -0.000000 -177.731000 -0.588061 -22.116100 39.081100 -0.000007 -0.000012 0.039075 -0.090252 23.410200 40.985400 -0.000006 -0.000013 -7.058810 8.311720 -57.439000 11.754300 -0.000000 0.000003 0.002053 0.048759 -14.599000 -2.192510 6.469440 -0.000001 179.658000 6.879090 -174.036000 -39.081100 -0.002282 -0.040193 0.001337 0.006324 17.459800 -40.985400 0.000008 0.000006 -1.949600 3.985990 -64.014400 -11.754300 -0.000006 -0.000006 0.001029 0.019621 -15.777300
0.000000 0.000000 0.000000 0.000000 0.000000 -0.000000 194.581000 93.734400 -117.772000 88.850600 -1.892770 -1.403850 15.735700 0.000005 -0.000001 135.615000 86.012400 -135.280000 8.984550 -0.406207 -0.000000 -2.208050 5.668770 0.779664 16.377300 -0.000001 -0.000001 -2.244860 1.600500 -2.316910 6.456720 -0.000001 -0.000000 9.347430 -0.947053 0.738398 12.994200 -0.242716 4.980390 -92.056000 5.708800 -70.155600 5.348090 -0.000007 -0.000001 -44.753800 -26.355500 14.304800 24.328600 0.000019 0.000005 0.946731 7.682850 -7.043140 22.291600 -0.000001 0.000005 25.540800 4.611740 14.645400 12.994500 -0.242716 -4.980390 89.441800 2.250810 -76.067200 -5.348130 -0.000001 -0.000004 -63.706400 17.232000 -22.804400 -24.328900 0.000322 -0.000009 -1.768690 -1.627260 -47.369500 -22.291500 -0.000108 -0.000004 5.199490 5.384640 -2.442570 -2.192480 -6.469440 -0.000000 -177.057000 -1.049410 -19.564800 39.081100 -0.000007 -0.000012 0.018338 -0.135631 7.700400 40.985400 -0.000006 -0.000013 -8.758200 8.730380 -57.867200 11.754300 -0.000000 0.000003 0.002124 0.051763 -14.477100 -2.192510 6.469440 -0.000001 179.323000 8.094120 -172.211000 -39.081100 -0.002282 -0.040193 -0.006148 0.030052 17.498300 -40.985400 0.000008 0.000006 -1.214330 5.000890 -63.956900 -11.754300 -0.000006 -0.000006 -0.001961 -0.028226 -17.720800
0.000000 0.000000 0.000000 0.000000 0.000000 -0.000000 194.885000 92.646000 -114.405000 88.628400 -2.138870 -1.719670 15.735700 0.000005 -0.000001 134.958000 86.045300 -134.565000 8.984550 -0.406207 -0.000000 -2.191940 5.552930 0.893620 16.377300 -0.000001 -0.000001 -2.897630 1.910300 -2.514100 6.456720 -0.000001 -0.000000 9.025750 -0.614831 0.763935 12.994200 -0.242716 4.980390 -92.055600 5.881320 -70.695400 5.348090 -0.000007 -0.000001 -44.567200 -27.956400 13.727900 24.328600 0.000019 0.000005 0.537325 4.930420 -6.223100 22.291600 -0.000001 0.000005 32.820400 4.473610 17.016100 12.994500 -0.242716 -4.980390 89.406500 2.444460 -76.348500 -5.348130 -0.000001 -0.000004 -63.216700 16.463500 -24.838500 -24.328900 0.000322 -0.000009 -2.808660 -2.259720 -51.188400 -22.291500 -0.000108 -0.000004 5.974950 5.411230 -3.302720 -2.192480 -6.469440 -0.000000 -176.513000 -0.456556 -22.402200 39.081100 -0.000007 -0.000012 -0.001864 0.020305 5.243260 40.985400 -0.000006 -0.000013 -6.816890 8.361030 -63.706800 11.754300 -0.000000 0.000003 0.002135 0.052280 -14.456200 -2.192510 6.469440 -0.000001 179.099000 7.818620 -171.253000 -39.081100 -0.002282 -0.040193 -0.013980 0.048871 19.495500 -40.985400 0.000008 0.000006 -0.951130 4.487250 -65.459500 -11.754300 -0.000006 -0.000006 -0.006927 -0.079037 -19.790600
0.000000 0.000000 0.000000 0.000000 0.000000 -0.000000 195.254000 91.331900 -110.574000 88.233200 -2.475310 -1.778050 15.735700 0.000005 -0.000001 133.834000 86.047700 -133.347000 8.984550 -0.406207 -0.000000 -2.090310 5.431170 1.073180 16.377300 -0.000001 -0.000001 -3.463910 2.172200 -2.416960 6.456720 -0.000001 -0.000000 8.748480 -0.167708 0.976156 12.994200 -0.242716 4.980390 -92.284300 6.661010 -71.022000 5.348090 -0.000007 -0.000001 -44.932100 -28.232500 12.379600 24.328600 0.000019 0.000005 0.183735 1.910810 -5.488780 22.291600 -0.000001 0.000005 34.573200 4.442690 17.535800 12.994500 -0.242716 -4.980390 89.281000 3.037240 -76.674900 -5.348130 -0.000001 -0.000004 -63.391000 15.510800 -25.633100 -24.328900 0.000322 -0.000009 -4.417700 -3.241680 -53.785500 -22.291500 -0.000108 -0.000004 7.051800 5.449960 -4.630750 -2.192480 -6.469440 -0.000000 -175.786000 -0.291865 -23.923600 39.081100 -0.000007 -0.000012 -0.003731 0.039801 5.354480 40.985400 -0.000006 -0.000013 -7.759100 8.620700 -65.385000 11.754300 -0.000000 0.000003 0.002073 0.049583 -14.565500 -2.192510 6.469440 -0.000001 179.213000 6.485110 -170.369000 -39.081100 -0.002282 -0.040193 -0.017463 0.049951 22.587700 -40.985400 0.000008 0.000006 -1.049810 3.306600 -66.865900 -11.754300 -0.000006 -0.000006 -0.018017 -0.156049 -22.945200
0.000000 0.000000 0.000000 0.000000 0.000000 -0.000000 195.813000 90.124900 -106.208000 88.640500 -2.343580 -2.474580 15.735700 0.000005 -0.000001 134.551000 86.320600 -134.276000 8.984550 -0.406207 -0.000000 -2.538410 5.136130 0.664612 16.377300 -0.000001 -0.000001 -3.930010 2.118170 -1.991390 6.456720 -0.000001 -0.000000 8.657970 0.153376 1.288710 12.994200 -0.242716 4.980390 -92.727100 8.002640 -71.112100 5.348090 -0.000007 -0.000001 -46.195100 -27.030200 10.114700 24.328600 0.000019 0.000005 0.026738 0.296055 -5.150480 22.291600 -0.000001 0.000005 31.064900 4.508330 16.443800 12.994500 -0.242716 -4.980390 89.086900 3.906750 -76.835000 -5.348130 -0.000001 -0.000004 -64.492500 14.370400 -24.466200 -24.328900 0.000322 -0.000009 -5.433910 -3.814260 -55.027900 -22.291500 -0.000108 -0.000004 7.940250 5.490520 -6.150220 -2.192480 -6.469440 -0.000000 -176.127000 -0.530093 -26.856500 39.081100 -0.000007 -0.000012 0.004000 -0.019962 11.333300 40.985400 -0.000006 -0.000013 -13.250500 8.919650 -60.592100 11.754300 -0.000000 0.000003 0.001511 0.031282 -15.307800 -2.192510 6.469440 -0.000001 178.169000 6.084490 -170.026000 -39.081100 -0.002282 -0.040193 -0.012656 0.033129 25.731000 -40.985400 0.000008 0.000006 -1.296010 3.168070 -66.711200 -11.754300 -0.000006 -0.000006 -0.041183 -0.264792 -27.453600
